<?xml version="1.0" encoding="UTF-8" standalone="no"?>
<!-- Created with Inkscape (http://www.inkscape.org/) -->

<svg
   xmlns:dc="http://purl.org/dc/elements/1.1/"
   xmlns:cc="http://creativecommons.org/ns#"
   xmlns:rdf="http://www.w3.org/1999/02/22-rdf-syntax-ns#"
   xmlns:svg="http://www.w3.org/2000/svg"
   xmlns="http://www.w3.org/2000/svg"
   xmlns:sodipodi="http://sodipodi.sourceforge.net/DTD/sodipodi-0.dtd"
   xmlns:inkscape="http://www.inkscape.org/namespaces/inkscape"
   width="210mm"
   height="297mm"
   viewBox="0 0 210 297"
   version="1.1"
   id="svg5733"
   sodipodi:docname="icono18.svg"
   inkscape:version="0.92.3 (2405546, 2018-03-11)">
  <defs
     id="defs5727" />
  <sodipodi:namedview
     id="base"
     pagecolor="#ffffff"
     bordercolor="#666666"
     borderopacity="1.0"
     inkscape:pageopacity="0.0"
     inkscape:pageshadow="2"
     inkscape:zoom="5.6"
     inkscape:cx="310.32836"
     inkscape:cy="581.75752"
     inkscape:document-units="mm"
     inkscape:current-layer="layer1"
     showgrid="false"
     inkscape:window-width="1920"
     inkscape:window-height="1001"
     inkscape:window-x="-9"
     inkscape:window-y="-9"
     inkscape:window-maximized="1" />
  <metadata
     id="metadata5730">
    <rdf:RDF>
      <cc:Work
         rdf:about="">
        <dc:format>image/svg+xml</dc:format>
        <dc:type
           rdf:resource="http://purl.org/dc/dcmitype/StillImage" />
        <dc:title></dc:title>
      </cc:Work>
    </rdf:RDF>
  </metadata>
  <g
     inkscape:label="Capa 1"
     inkscape:groupmode="layer"
     id="layer1">
    <path
       d="m 78.855062,150.81604 c 0.193,-0.0276 0.37896,-0.0414 0.5581,-0.0414 0.1792,-0.014 0.36518,-0.0276 0.5581,-0.0414 0.4961,-0.0276 0.97842,-0.0552 1.44694,-0.0826 0.46854,-0.0276 0.87506,-0.014 1.21958,0.0414 0.35828,0.0414 0.627,0.1448 0.80614,0.31006 0.1792,0.1654 0.22048,0.4272 0.124,0.78548 l -0.28936,0.99218 c -0.0276,-0.0688 -0.1034,-0.124 -0.22738,-0.1654 -0.1102,-0.0552 -0.241158,-0.0964 -0.39274,-0.124 -0.1654,-0.0414 -0.3514,-0.0758 -0.5581,-0.1034 -0.48232,-0.0552 -1.01286,-0.062 -1.59164,-0.0206 -0.57878,0.0414 -1.13688,0.1034 -1.67432,0.186 l -1.86036,0.43406 c -0.23426,-0.014 -0.44786,-0.193 -0.64078,-0.53744 -0.193,-0.34452 -0.2825,-0.73036 -0.26872,-1.15756 0.0964,-0.0276 0.193,-0.0482 0.2894,-0.062 0.1102,-0.014 0.21358,-0.0344 0.31006,-0.062 0.1102,-0.0276 0.21358,-0.0482 0.31004,-0.062"
       style="font-style:normal;font-variant:normal;font-weight:normal;font-stretch:normal;font-size:medium;line-height:1.25;font-family:Rancho;-inkscape-font-specification:Rancho;letter-spacing:0px;word-spacing:0px;display:inline;fill:#2d4e72;fill-opacity:1;stroke:none;stroke-width:0.52916664"
       id="path4603-9-0-2-6-2-2-4-1-7-0-2-5-1-9"
       inkscape:connector-curvature="0"
       sodipodi:nodetypes="cccscccccccsccccccc" />
    <circle
       cy="151.80446"
       cx="73.346909"
       id="circle4649-1-3-3-9-2-9-7-3-3-0-3-1-6-2"
       style="display:inline;fill:#d4861b;fill-opacity:1;stroke-width:0.51174229"
       r="1.3727359" />
    <path
       d="m 78.875262,143.94306 c 0.34452,-0.0276 0.7028,-0.0552 1.07488,-0.0826 0.37206,-0.0276 0.75792,-0.0414 1.15754,-0.0414 0.53744,-0.014 1.04042,-0.0276 1.50896,-0.0414 0.39962,-0.014 0.79926,-0.014 1.19888,0 0.41342,0 0.73036,0.006 0.95086,0.0206 0.1102,0.014 0.193,0.0964 0.24804,0.24804 0.0688,0.1378 0.0896,0.32384 0.062,0.55812 -0.014,0.22048 -0.0826,0.46164 -0.2067,0.72346 -0.124,0.26182 -0.31006,0.51676 -0.5581,0.76482 -0.33074,-0.0688 -0.68214,-0.124 -1.0542,-0.1654 -0.3583,-0.0414 -0.68902,-0.0758 -0.9922,-0.1034 -0.35828,-0.0276 -0.7028,-0.0344 -1.03352,-0.0206 -0.39964,0 -0.79926,0.014 -1.1989,0.0414 -0.39962,0.014 -0.77858,0.0344 -1.13688,0.062 l -1.86032,0.1654 c -0.124,0.014 -0.25494,0.0276 -0.39274,0.0414 -0.1102,0.014 -0.23426,0.0276 -0.37208,0.0414 -0.1378,0.014 -0.26182,0.0276 -0.37206,0.0414 h -2e-5 c -0.0826,-0.0826 -0.1448,-0.1722 -0.186,-0.26872 -0.0414,-0.1102 -0.0758,-0.22048 -0.1034,-0.33072 -0.0276,-0.124 -0.0482,-0.24806 -0.062,-0.37208 -0.014,-0.1102 -0.014,-0.22048 0,-0.33072 0,-0.20672 0.0414,-0.36518 0.124,-0.47542 0.1516,-0.0276 0.31694,-0.0552 0.4961,-0.0826 0.1792,-0.0414 0.3514,-0.0758 0.51676,-0.1034 0.193,-0.0276 0.39274,-0.0552 0.59944,-0.0826"
       style="font-style:normal;font-variant:normal;font-weight:normal;font-stretch:normal;font-size:medium;line-height:1.25;font-family:Rancho;-inkscape-font-specification:Rancho;letter-spacing:0px;word-spacing:0px;display:inline;fill:#2d4e72;fill-opacity:1;stroke:none;stroke-width:0.52916664"
       id="path4605-9-5-0-0-4-1-9-7-0-2-7-8-9-78-0"
       inkscape:connector-curvature="0"
       sodipodi:nodetypes="cscccccccccccccccccccccccccc" />
    <circle
       style="display:inline;fill:#d4861b;fill-opacity:1;stroke-width:0.51174229"
       id="circle4638-8-6-7-4-04-6-2-7-4-41-6-9-9-3-6"
       cx="73.325775"
       cy="145.15858"
       r="1.3727359" />
  </g>
</svg>
