<?xml version="1.0" encoding="UTF-8" standalone="no"?>
<!-- Created with Inkscape (http://www.inkscape.org/) -->

<svg
   xmlns:dc="http://purl.org/dc/elements/1.1/"
   xmlns:cc="http://creativecommons.org/ns#"
   xmlns:rdf="http://www.w3.org/1999/02/22-rdf-syntax-ns#"
   xmlns:svg="http://www.w3.org/2000/svg"
   xmlns="http://www.w3.org/2000/svg"
   xmlns:sodipodi="http://sodipodi.sourceforge.net/DTD/sodipodi-0.dtd"
   xmlns:inkscape="http://www.inkscape.org/namespaces/inkscape"
   width="210mm"
   height="297mm"
   viewBox="0 0 210 297"
   version="1.1"
   id="svg5733"
   inkscape:version="0.92.3 (2405546, 2018-03-11)"
   sodipodi:docname="icono.svg">
  <defs
     id="defs5727" />
  <sodipodi:namedview
     id="base"
     pagecolor="#ffffff"
     bordercolor="#666666"
     borderopacity="1.0"
     inkscape:pageopacity="0.0"
     inkscape:pageshadow="2"
     inkscape:zoom="11.2"
     inkscape:cx="275.66576"
     inkscape:cy="543.10742"
     inkscape:document-units="mm"
     inkscape:current-layer="layer1"
     showgrid="false"
     inkscape:window-width="1920"
     inkscape:window-height="1001"
     inkscape:window-x="-9"
     inkscape:window-y="-9"
     inkscape:window-maximized="1" />
  <metadata
     id="metadata5730">
    <rdf:RDF>
      <cc:Work
         rdf:about="">
        <dc:format>image/svg+xml</dc:format>
        <dc:type
           rdf:resource="http://purl.org/dc/dcmitype/StillImage" />
        <dc:title></dc:title>
      </cc:Work>
    </rdf:RDF>
  </metadata>
  <g
     inkscape:label="Capa 1"
     inkscape:groupmode="layer"
     id="layer1">
    <path
       d="m 74.124705,154.05906 c 0.0965,-0.0138 0.18948,-0.0207 0.27905,-0.0207 0.0896,-0.007 0.18259,-0.0138 0.27905,-0.0207 0.24805,-0.0138 0.48921,-0.0276 0.72347,-0.0413 0.23427,-0.0138 0.43753,-0.007 0.60979,0.0207 0.17914,0.0207 0.3135,0.0724 0.40307,0.15503 0.0896,0.0827 0.11024,0.2136 0.062,0.39274 l -0.14468,0.49609 c -0.0138,-0.0344 -0.0517,-0.062 -0.11369,-0.0827 -0.0551,-0.0276 -0.120579,-0.0482 -0.19637,-0.062 -0.0827,-0.0207 -0.1757,-0.0379 -0.27905,-0.0517 -0.24116,-0.0276 -0.50643,-0.031 -0.79582,-0.0103 -0.28939,0.0207 -0.56844,0.0517 -0.83716,0.093 l -0.93018,0.21703 c -0.11713,-0.007 -0.22393,-0.0965 -0.32039,-0.26872 -0.0965,-0.17226 -0.14125,-0.36518 -0.13436,-0.57878 0.0482,-0.0138 0.0965,-0.0241 0.1447,-0.031 0.0551,-0.007 0.10679,-0.0172 0.15503,-0.031 0.0551,-0.0138 0.10679,-0.0241 0.15502,-0.031"
       style="font-style:normal;font-variant:normal;font-weight:normal;font-stretch:normal;font-size:medium;line-height:1.25;font-family:Rancho;-inkscape-font-specification:Rancho;letter-spacing:0px;word-spacing:0px;display:inline;fill:#2d4e72;fill-opacity:1;stroke:none;stroke-width:0.26458332"
       id="path4603-9-0-2-6-2-2-4-1-7-0-2-5-1-9"
       inkscape:connector-curvature="0"
       sodipodi:nodetypes="cccscccccccsccccccc" />
    <circle
       r="0.68636793"
       cy="154.55327"
       cx="71.370628"
       id="circle4649-1-3-3-9-2-9-7-3-3-0-3-1-6-2"
       style="display:inline;fill:#d4861b;fill-opacity:1;stroke-width:0.25587115" />
    <path
       d="m 74.134805,150.62257 c 0.17226,-0.0138 0.3514,-0.0276 0.53744,-0.0413 0.18603,-0.0138 0.37896,-0.0207 0.57877,-0.0207 0.26872,-0.007 0.52021,-0.0138 0.75448,-0.0207 0.19981,-0.007 0.39963,-0.007 0.59944,0 0.20671,0 0.36518,0.003 0.47543,0.0103 0.0551,0.007 0.0965,0.0482 0.12402,0.12402 0.0344,0.0689 0.0448,0.16192 0.031,0.27906 -0.007,0.11024 -0.0413,0.23082 -0.10335,0.36173 -0.062,0.13091 -0.15503,0.25838 -0.27905,0.38241 -0.16537,-0.0344 -0.34107,-0.062 -0.5271,-0.0827 -0.17915,-0.0207 -0.34451,-0.0379 -0.4961,-0.0517 -0.17914,-0.0138 -0.3514,-0.0172 -0.51676,-0.0103 -0.19982,0 -0.39963,0.007 -0.59945,0.0207 -0.19981,0.007 -0.38929,0.0172 -0.56844,0.031 l -0.93016,0.0827 c -0.062,0.007 -0.12747,0.0138 -0.19637,0.0207 -0.0551,0.007 -0.11713,0.0138 -0.18604,0.0207 -0.0689,0.007 -0.13091,0.0138 -0.18603,0.0207 h -1e-5 c -0.0413,-0.0413 -0.0724,-0.0861 -0.093,-0.13436 -0.0207,-0.0551 -0.0379,-0.11024 -0.0517,-0.16536 -0.0138,-0.062 -0.0241,-0.12403 -0.031,-0.18604 -0.007,-0.0551 -0.007,-0.11024 0,-0.16536 0,-0.10336 0.0207,-0.18259 0.062,-0.23771 0.0758,-0.0138 0.15847,-0.0276 0.24805,-0.0413 0.0896,-0.0207 0.1757,-0.0379 0.25838,-0.0517 0.0965,-0.0138 0.19637,-0.0276 0.29972,-0.0413"
       style="font-style:normal;font-variant:normal;font-weight:normal;font-stretch:normal;font-size:medium;line-height:1.25;font-family:Rancho;-inkscape-font-specification:Rancho;letter-spacing:0px;word-spacing:0px;display:inline;fill:#2d4e72;fill-opacity:1;stroke:none;stroke-width:0.26458332"
       id="path4605-9-5-0-0-4-1-9-7-0-2-7-8-9-78-0"
       inkscape:connector-curvature="0"
       sodipodi:nodetypes="cscccccccccccccccccccccccccc" />
    <circle
       style="display:inline;fill:#d4861b;fill-opacity:1;stroke-width:0.25587115"
       id="circle4638-8-6-7-4-04-6-2-7-4-41-6-9-9-3-6"
       cx="71.360062"
       cy="151.23033"
       r="0.68636793" />
  </g>
</svg>
