<?xml version="1.0" encoding="UTF-8" standalone="no"?>
<!-- Created with Inkscape (http://www.inkscape.org/) -->

<svg
   xmlns:dc="http://purl.org/dc/elements/1.1/"
   xmlns:cc="http://creativecommons.org/ns#"
   xmlns:rdf="http://www.w3.org/1999/02/22-rdf-syntax-ns#"
   xmlns:svg="http://www.w3.org/2000/svg"
   xmlns="http://www.w3.org/2000/svg"
   xmlns:sodipodi="http://sodipodi.sourceforge.net/DTD/sodipodi-0.dtd"
   xmlns:inkscape="http://www.inkscape.org/namespaces/inkscape"
   width="210mm"
   height="297mm"
   viewBox="0 0 210 297"
   version="1.1"
   id="svg5733"
   sodipodi:docname="icono24.svg"
   inkscape:version="0.92.3 (2405546, 2018-03-11)">
  <defs
     id="defs5727" />
  <sodipodi:namedview
     id="base"
     pagecolor="#ffffff"
     bordercolor="#666666"
     borderopacity="1.0"
     inkscape:pageopacity="0.0"
     inkscape:pageshadow="2"
     inkscape:zoom="5.6"
     inkscape:cx="310.32836"
     inkscape:cy="581.75752"
     inkscape:document-units="mm"
     inkscape:current-layer="layer1"
     showgrid="false"
     inkscape:window-width="1920"
     inkscape:window-height="1001"
     inkscape:window-x="-9"
     inkscape:window-y="-9"
     inkscape:window-maximized="1" />
  <metadata
     id="metadata5730">
    <rdf:RDF>
      <cc:Work
         rdf:about="">
        <dc:format>image/svg+xml</dc:format>
        <dc:type
           rdf:resource="http://purl.org/dc/dcmitype/StillImage" />
        <dc:title></dc:title>
      </cc:Work>
    </rdf:RDF>
  </metadata>
  <g
     inkscape:label="Capa 1"
     inkscape:groupmode="layer"
     id="layer1">
    <path
       d="m 82.008633,148.65403 c 0.257333,-0.0368 0.50528,-0.0552 0.744133,-0.0552 0.238934,-0.0187 0.486907,-0.0368 0.744134,-0.0552 0.661466,-0.0368 1.30456,-0.0736 1.929253,-0.11013 0.62472,-0.0368 1.166747,-0.0187 1.626107,0.0552 0.477706,0.0552 0.836,0.19306 1.074853,0.41341 0.238933,0.22053 0.293973,0.5696 0.165333,1.04731 l -0.385813,1.3229 c -0.0368,-0.0917 -0.137867,-0.16533 -0.303173,-0.22053 -0.146934,-0.0736 -0.321544,-0.12853 -0.523654,-0.16533 -0.220533,-0.0552 -0.468533,-0.10107 -0.744133,-0.13787 -0.643093,-0.0736 -1.35048,-0.0827 -2.122187,-0.0275 -0.771706,0.0552 -1.51584,0.13787 -2.232426,0.248 l -2.48048,0.57875 c -0.312347,-0.0187 -0.597147,-0.25733 -0.854374,-0.71659 -0.257333,-0.45936 -0.376666,-0.97381 -0.358293,-1.54341 0.128533,-0.0368 0.257333,-0.0643 0.385867,-0.0827 0.146933,-0.0187 0.284773,-0.0459 0.413413,-0.0827 0.146933,-0.0368 0.284773,-0.0643 0.413387,-0.0827"
       style="font-style:normal;font-variant:normal;font-weight:normal;font-stretch:normal;font-size:medium;line-height:1.25;font-family:Rancho;-inkscape-font-specification:Rancho;letter-spacing:0px;word-spacing:0px;display:inline;fill:#2d4e72;fill-opacity:1;stroke:none;stroke-width:0.7055555"
       id="path4603-9-0-2-6-2-2-4-1-7-0-2-5-1-9"
       inkscape:connector-curvature="0"
       sodipodi:nodetypes="cccscccccccsccccccc" />
    <circle
       cy="149.97192"
       cx="74.664429"
       id="circle4649-1-3-3-9-2-9-7-3-3-0-3-1-6-2"
       style="display:inline;fill:#d4861b;fill-opacity:1;stroke-width:0.68232304"
       r="1.8303145" />
    <path
       d="m 82.035566,139.49006 c 0.45936,-0.0368 0.937067,-0.0736 1.433174,-0.11014 0.49608,-0.0368 1.01056,-0.0552 1.543386,-0.0552 0.716587,-0.0187 1.387227,-0.0368 2.011947,-0.0552 0.532827,-0.0187 1.06568,-0.0187 1.598507,0 0.551226,0 0.973813,0.008 1.267813,0.0275 0.146933,0.0187 0.257333,0.12853 0.33072,0.33072 0.09173,0.18373 0.119467,0.43179 0.08267,0.74416 -0.01867,0.29397 -0.110134,0.61552 -0.2756,0.96461 -0.165334,0.3491 -0.413414,0.68902 -0.744134,1.01976 -0.440986,-0.0917 -0.90952,-0.16533 -1.4056,-0.22053 -0.477733,-0.0552 -0.918693,-0.10107 -1.322933,-0.13787 -0.477707,-0.0368 -0.937067,-0.0459 -1.378027,-0.0275 -0.532853,0 -1.06568,0.0187 -1.598533,0.0552 -0.532827,0.0187 -1.038107,0.0459 -1.51584,0.0827 l -2.480427,0.22054 c -0.165333,0.0187 -0.33992,0.0368 -0.523653,0.0552 -0.146933,0.0187 -0.312347,0.0368 -0.496107,0.0552 -0.183733,0.0187 -0.349093,0.0368 -0.49608,0.0552 h -2.6e-5 c -0.110134,-0.11014 -0.193067,-0.2296 -0.248,-0.3583 -0.0552,-0.14693 -0.101067,-0.29397 -0.137867,-0.44096 -0.0368,-0.16533 -0.06427,-0.33074 -0.08267,-0.4961 -0.01867,-0.14694 -0.01867,-0.29398 0,-0.44096 0,-0.27563 0.0552,-0.48691 0.165334,-0.6339 0.202133,-0.0368 0.422586,-0.0736 0.661466,-0.11013 0.238934,-0.0552 0.468534,-0.10107 0.689014,-0.13787 0.257333,-0.0368 0.523653,-0.0736 0.799253,-0.11013"
       style="font-style:normal;font-variant:normal;font-weight:normal;font-stretch:normal;font-size:medium;line-height:1.25;font-family:Rancho;-inkscape-font-specification:Rancho;letter-spacing:0px;word-spacing:0px;display:inline;fill:#2d4e72;fill-opacity:1;stroke:none;stroke-width:0.7055555"
       id="path4605-9-5-0-0-4-1-9-7-0-2-7-8-9-78-0"
       inkscape:connector-curvature="0"
       sodipodi:nodetypes="cscccccccccccccccccccccccccc" />
    <circle
       style="display:inline;fill:#d4861b;fill-opacity:1;stroke-width:0.68232304"
       id="circle4638-8-6-7-4-04-6-2-7-4-41-6-9-9-3-6"
       cx="74.636253"
       cy="141.11075"
       r="1.8303145" />
  </g>
</svg>
