<?xml version="1.0" encoding="UTF-8" standalone="no"?>
<!-- Created with Inkscape (http://www.inkscape.org/) -->

<svg
   xmlns:dc="http://purl.org/dc/elements/1.1/"
   xmlns:cc="http://creativecommons.org/ns#"
   xmlns:rdf="http://www.w3.org/1999/02/22-rdf-syntax-ns#"
   xmlns:svg="http://www.w3.org/2000/svg"
   xmlns="http://www.w3.org/2000/svg"
   xmlns:sodipodi="http://sodipodi.sourceforge.net/DTD/sodipodi-0.dtd"
   xmlns:inkscape="http://www.inkscape.org/namespaces/inkscape"
   width="26.760891mm"
   height="8.0925293mm"
   viewBox="0 0 26.760891 8.0925293"
   version="1.1"
   id="svg2023"
   inkscape:version="0.92.3 (2405546, 2018-03-11)"
   sodipodi:docname="logoText.svg"
   inkscape:export-filename="E:\repos\favlist_app\design\mockups\logoText.svg.png"
   inkscape:export-xdpi="96"
   inkscape:export-ydpi="96">
  <defs
     id="defs2017" />
  <sodipodi:namedview
     id="base"
     pagecolor="#ffffff"
     bordercolor="#666666"
     borderopacity="1.0"
     inkscape:pageopacity="0.0"
     inkscape:pageshadow="2"
     inkscape:zoom="0.98994949"
     inkscape:cx="171.51084"
     inkscape:cy="-139.0415"
     inkscape:document-units="mm"
     inkscape:current-layer="layer1"
     showgrid="false"
     inkscape:window-width="1920"
     inkscape:window-height="1017"
     inkscape:window-x="-8"
     inkscape:window-y="-8"
     inkscape:window-maximized="1"
     fit-margin-top="0"
     fit-margin-left="0"
     fit-margin-right="0"
     fit-margin-bottom="0" />
  <metadata
     id="metadata2020">
    <rdf:RDF>
      <cc:Work
         rdf:about="">
        <dc:format>image/svg+xml</dc:format>
        <dc:type
           rdf:resource="http://purl.org/dc/dcmitype/StillImage" />
        <dc:title></dc:title>
      </cc:Work>
    </rdf:RDF>
  </metadata>
  <g
     inkscape:label="Capa 1"
     inkscape:groupmode="layer"
     id="layer1"
     transform="translate(-0.02157873,-0.01400731)">
    <text
       xml:space="preserve"
       style="font-style:normal;font-variant:normal;font-weight:normal;font-stretch:normal;font-size:10.58333302px;line-height:1.25;font-family:Rancho;-inkscape-font-specification:Rancho;letter-spacing:0px;word-spacing:0px;display:inline;fill:#2d4e72;fill-opacity:1;stroke:none;stroke-width:0.26458332"
       x="1.5497664"
       y="7.1453547"
       id="text4599-7-7-8-8-1-2-81-6-7"><tspan
         sodipodi:role="line"
         id="tspan4597-5-2-8-8-0-1-3-2-1"
         x="1.5497664"
         y="7.1453547"
         style="fill:#2d4e72;fill-opacity:1;stroke-width:0.26458332">F</tspan></text>
    <text
       xml:space="preserve"
       style="font-style:normal;font-variant:normal;font-weight:normal;font-stretch:normal;font-size:10.58333302px;line-height:1.25;font-family:Rancho;-inkscape-font-specification:Rancho;letter-spacing:0px;word-spacing:0px;display:inline;fill:#2d4e72;fill-opacity:1;stroke:none;stroke-width:0.26458332"
       x="6.0528483"
       y="7.1321712"
       id="text4627-3-7-9-8-6-9-6-2-9"><tspan
         sodipodi:role="line"
         id="tspan4625-1-4-9-1-2-4-6-7-6"
         x="6.0528483"
         y="7.1321712"
         style="fill:#2d4e72;fill-opacity:1;stroke-width:0.26458332">av</tspan></text>
    <g
       transform="translate(-16.507615,-31.426614)"
       aria-label="Lists"
       style="font-style:normal;font-variant:normal;font-weight:normal;font-stretch:normal;font-size:10.58333302px;line-height:1.25;font-family:Rancho;-inkscape-font-specification:Rancho;letter-spacing:0px;word-spacing:0px;fill:#d4861b;fill-opacity:1;stroke:none;stroke-width:0.26458332"
       id="text4632-4-3-6-0-6-6-8-3-8">
      <path
         inkscape:connector-curvature="0"
         d="m 30.246953,39.099166 q 0.04134,-0.134359 0.07235,-0.454753 0.04134,-0.310059 0.06201,-0.630452 0.03101,-0.372071 0.05168,-0.806153 0.03101,-0.320394 0.05168,-0.806152 0.02067,-0.485759 0.03101,-1.033529 0.01034,-0.54777 0.01034,-1.105875 0,-0.568441 -0.01034,-1.0542 -0.01034,-0.485758 -0.04134,-0.837158 -0.02067,-0.351399 -0.06201,-0.475423 0.196371,-0.113688 0.3514,-0.165364 0.155029,-0.05168 0.268717,-0.07235 0.124024,-0.03101 0.227377,-0.02067 0.08268,0.01034 0.165364,0.03101 0.07235,0.02067 0.134359,0.06201 0.06201,0.03101 0.09302,0.09302 -0.02067,0.651123 -0.05168,1.312581 -0.02067,0.651124 -0.05168,1.198894 -0.04134,0.640787 -0.08268,1.229899 -0.031,0.620117 -0.06201,1.074869 -0.02067,0.444418 -0.04134,0.785482 -0.02067,0.330729 -0.03101,0.599447 -0.01034,0.258382 -0.01034,0.516764 0.248047,-0.05168 0.589112,-0.113688 0.341064,-0.07235 0.775146,-0.144694 0.413412,-0.06201 0.692464,-0.03101 0.279053,0.02067 0.444418,0.124024 0.165364,0.09302 0.227376,0.237711 0.06201,0.155029 0.05168,0.341065 -0.02067,0.206705 -0.03101,0.320393 -0.01034,0.113689 -0.01034,0.1757 -0.113688,-0.07235 -0.310058,-0.103353 -0.196371,-0.03101 -0.392741,-0.05168 -0.227376,-0.02067 -0.475423,-0.01033 -0.268718,0.01033 -0.589112,0.04134 -0.268717,0.02067 -0.630452,0.06201 -0.361735,0.04134 -0.754476,0.124023 -0.279053,-0.19637 -0.465088,-0.310059 -0.113688,-0.06201 -0.19637,-0.103352 z"
         style="fill:#d4861b;fill-opacity:1;stroke-width:0.26458332"
         id="path4799-3-9-2-5-6-3-4-6-6" />
      <path
         d="m 34.236373,34.92371 c 0,-0.04134 0.05512,-0.08613 0.165365,-0.134359 0.110243,-0.04823 0.230821,-0.08613 0.361735,-0.113688 0.137803,-0.03445 0.261827,-0.05168 0.37207,-0.05168 0.117133,-0.0069 0.1757,0.01722 0.1757,0.07235 0,0.103353 -0.0069,0.251492 -0.02067,0.444417 -0.01378,0.186035 -0.03101,0.385851 -0.05168,0.599447 -0.02067,0.206705 -0.04134,0.416856 -0.06201,0.630452 -0.02067,0.206706 -0.03445,0.382406 -0.04134,0.5271 -0.01378,0.151584 -0.02756,0.316948 -0.04134,0.496093 -0.01378,0.151585 -0.02412,0.320394 -0.03101,0.506429 -0.0069,0.186035 -0.0069,0.375516 0,0.568441 0,0.03445 -0.03445,0.0689 -0.103353,0.103353 -0.0689,0.03445 -0.144694,0.05857 -0.227376,0.07235 -0.08268,0.02067 -0.16192,0.03101 -0.237712,0.03101 -0.07579,0 -0.117133,-0.01378 -0.124023,-0.04134 -0.01378,-0.02756 -0.02756,-0.07579 -0.04134,-0.144694 -0.01378,-0.0689 -0.02756,-0.165365 -0.04134,-0.289388 -0.01378,-0.130914 -0.02412,-0.296279 -0.03101,-0.496094 -0.0069,-0.206706 -0.0035,-0.454753 0.01033,-0.744141 0.02756,-0.571885 0.03101,-1.012857 0.01034,-1.322916 -0.02067,-0.316949 -0.03445,-0.55466 -0.04134,-0.713135 z"
         style="fill:#d4861b;fill-opacity:1;stroke-width:0.26458332"
         id="path4801-5-1-6-8-5-8-0-9-5"
         inkscape:connector-curvature="0"
         sodipodi:nodetypes="ccccscccccccccscccccccc" />
      <path
         inkscape:connector-curvature="0"
         d="m 37.667688,36.618697 q 0.227376,0.08268 0.434082,0.155029 0.206706,0.07235 0.361735,0.1757 0.155029,0.103353 0.248047,0.248047 0.09302,0.134359 0.09302,0.341064 0,0.248047 -0.113689,0.465088 -0.103352,0.217041 -0.310058,0.382406 -0.206706,0.165364 -0.506429,0.258382 -0.289388,0.103353 -0.651123,0.103353 -0.403076,0 -0.651123,-0.08268 -0.248047,-0.07235 -0.382406,-0.1757 -0.134358,-0.103353 -0.1757,-0.206706 -0.04134,-0.103353 -0.04134,-0.165365 0,-0.124023 0.05168,-0.268717 0.05168,-0.155029 0.19637,-0.330729 0.06201,-0.07235 0.134359,-0.134359 0.144694,-0.124023 0.289388,-0.155029 -0.02067,0.237711 0.05168,0.392741 0.08268,0.144694 0.206706,0.227376 0.134359,0.08268 0.289388,0.113688 0.165365,0.03101 0.310059,0.03101 0.144694,0 0.289388,-0.04134 0.155029,-0.04134 0.279052,-0.103353 0.124024,-0.07235 0.196371,-0.155029 0.08268,-0.09302 0.08268,-0.196371 0,-0.113688 -0.09302,-0.186035 -0.09302,-0.07235 -0.237711,-0.113688 -0.134359,-0.05168 -0.299723,-0.07235 -0.15503,-0.03101 -0.299724,-0.06201 -0.144694,-0.03101 -0.392741,-0.08268 -0.237711,-0.06201 -0.475423,-0.186035 -0.227376,-0.124024 -0.403076,-0.330729 -0.165364,-0.206706 -0.165364,-0.547771 0,-0.39274 0.19637,-0.682128 0.206706,-0.299724 0.496094,-0.496094 0.299723,-0.206706 0.630452,-0.310059 0.330729,-0.103353 0.589111,-0.103353 0.134359,0 0.289388,0.04134 0.15503,0.03101 0.289388,0.124023 0.134359,0.08268 0.217041,0.227376 0.09302,0.144694 0.09302,0.372071 0,0.227376 -0.04134,0.37207 -0.03101,0.134359 -0.103353,0.217041 -0.06201,0.07235 -0.155029,0.09302 -0.09302,0.02067 -0.217041,0.02067 -0.08268,0 -0.15503,-0.02067 -0.06201,-0.02067 -0.134358,-0.04134 -0.07235,-0.02067 -0.134359,-0.07235 0.103353,-0.124023 0.155029,-0.237711 0.06201,-0.113688 0.06201,-0.279053 0,-0.144694 -0.08268,-0.258382 -0.07235,-0.113688 -0.248047,-0.113688 -0.186035,0 -0.361735,0.07235 -0.165365,0.07235 -0.299723,0.19637 -0.124024,0.124024 -0.206706,0.289388 -0.07235,0.155029 -0.07235,0.341065 0,0.279052 0.206706,0.527099 0.217041,0.248047 0.671793,0.423747 z"
         style="fill:#d4861b;fill-opacity:1;stroke-width:0.26458332"
         id="path4803-5-4-73-5-9-5-6-4-6" />
      <path
         inkscape:connector-curvature="0"
         d="m 43.290084,33.983199 q -0.113688,-0.02067 -0.310059,-0.04134 -0.186035,-0.02067 -0.382405,-0.03101 -0.227377,-0.01033 -0.485759,-0.01033 -0.258382,-0.02067 -0.651123,0 -0.382405,0.01033 -0.806152,0.01033 -0.01034,0.268717 -0.04134,0.54777 -0.02067,0.279053 -0.04134,0.54777 -0.05168,0.496094 -0.09302,1.012858 -0.03101,0.516765 -0.03101,0.981852 0,0.465088 0.05168,0.847494 0.06201,0.37207 0.217042,0.589111 -0.124024,0.09302 -0.268718,0.144694 -0.144694,0.04134 -0.258382,0.06201 -0.134359,0.03101 -0.268718,0.03101 -0.124023,0 -0.206705,-0.08268 -0.08268,-0.08268 -0.09302,-0.289388 -0.02067,-0.3514 -0.01033,-0.7028 0.02067,-0.361735 0.04134,-0.754476 0.03101,-0.392741 0.06201,-0.837158 0.03101,-0.454753 0.06201,-0.992187 0.03101,-0.558106 0.03101,-1.085205 -0.392741,0.01034 -0.661458,0.01034 -0.268717,0 -0.299723,-0.01034 -0.03101,-0.02067 -0.07235,-0.09302 -0.04134,-0.06201 -0.103353,-0.186035 -0.07235,-0.124024 -0.1757,-0.3514 0.19637,0 0.434082,0 0.227376,0 0.423747,-0.01034 0.227376,-0.01034 0.454752,-0.02067 -0.01033,-0.165364 -0.01033,-0.3514 -0.01033,-0.144694 -0.01033,-0.320393 0,-0.186036 -0.01034,-0.341065 0,-0.06201 0.144694,-0.144694 0.15503,-0.09302 0.33073,-0.165364 0.175699,-0.07235 0.320394,-0.09302 0.155029,-0.02067 0.155029,0.07235 0,0.09302 -0.01034,0.454753 0,0.351399 -0.02067,0.857828 0.103353,0 0.155029,-0.01033 0.54777,-0.02067 0.8785,-0.04134 0.341064,-0.03101 0.558105,-0.01033 0.217041,0.02067 0.382406,0.103352 0.165364,0.08268 0.37207,0.268718 0.07235,0.06201 0.124023,0.134359 0.05168,0.06201 0.08268,0.144694 0.04134,0.07235 0.04134,0.155029 z"
         style="fill:#d4861b;fill-opacity:1;stroke-width:0.26458332"
         id="path4805-5-0-1-7-2-8-3-5-1" />
    </g>
    <circle
       r="0.68636793"
       cy="2.0543513"
       cx="18.313187"
       id="circle4634-7-9-3-2-4-7-5-0-4"
       style="display:inline;fill:#2d4e72;fill-opacity:1;stroke-width:0.25587115" />
    <circle
       style="display:inline;fill:#d4861b;fill-opacity:1;stroke-width:0.25587115"
       id="circle4638-1-0-8-4-53-7-9-0-6"
       cx="0.70794666"
       cy="0.90657777"
       r="0.68636793" />
    <circle
       r="0.68636793"
       cy="4.2140346"
       cx="0.70794666"
       id="circle4649-5-0-3-1-7-7-9-9-4"
       style="display:inline;fill:#d4861b;fill-opacity:1;stroke-width:0.25587115" />
  </g>
</svg>
