<?xml version="1.0" encoding="UTF-8" standalone="no"?>
<!-- Created with Inkscape (http://www.inkscape.org/) -->

<svg
   xmlns:dc="http://purl.org/dc/elements/1.1/"
   xmlns:cc="http://creativecommons.org/ns#"
   xmlns:rdf="http://www.w3.org/1999/02/22-rdf-syntax-ns#"
   xmlns:svg="http://www.w3.org/2000/svg"
   xmlns="http://www.w3.org/2000/svg"
   xmlns:sodipodi="http://sodipodi.sourceforge.net/DTD/sodipodi-0.dtd"
   xmlns:inkscape="http://www.inkscape.org/namespaces/inkscape"
   width="27mm"
   height="8mm"
   viewBox="0 0 27 8"
   version="1.1"
   id="svg2023"
   inkscape:version="0.92.3 (2405546, 2018-03-11)"
   sodipodi:docname="logoText2.svg"
   inkscape:export-filename="E:\repos\favlist_app\design\mockups\logoText.svg.png"
   inkscape:export-xdpi="96"
   inkscape:export-ydpi="96">
  <defs
     id="defs2017" />
  <sodipodi:namedview
     id="base"
     pagecolor="#ffffff"
     bordercolor="#666666"
     borderopacity="1.0"
     inkscape:pageopacity="0.0"
     inkscape:pageshadow="2"
     inkscape:zoom="0.98994949"
     inkscape:cx="171.51084"
     inkscape:cy="-139.0415"
     inkscape:document-units="mm"
     inkscape:current-layer="layer1"
     showgrid="false"
     inkscape:window-width="1920"
     inkscape:window-height="1017"
     inkscape:window-x="-8"
     inkscape:window-y="-8"
     inkscape:window-maximized="1"
     fit-margin-top="0"
     fit-margin-left="0"
     fit-margin-right="0"
     fit-margin-bottom="0" />
  <metadata
     id="metadata2020">
    <rdf:RDF>
      <cc:Work
         rdf:about="">
        <dc:format>image/svg+xml</dc:format>
        <dc:type
           rdf:resource="http://purl.org/dc/dcmitype/StillImage" />
        <dc:title></dc:title>
      </cc:Work>
    </rdf:RDF>
  </metadata>
  <g
     inkscape:label="Capa 1"
     inkscape:groupmode="layer"
     id="layer1"
     transform="translate(-0.02157873,-0.01400731)">
    <g
       id="g2620">
      <g
         id="text4599-7-7-8-8-1-2-81-6-7"
         style="font-style:normal;font-variant:normal;font-weight:normal;font-stretch:normal;font-size:10.58333302px;line-height:1.25;font-family:Rancho;-inkscape-font-specification:Rancho;letter-spacing:0px;word-spacing:0px;display:inline;fill:#2d4e72;fill-opacity:1;stroke:none;stroke-width:0.26458332"
         aria-label="F">
        <path
           id="path2604"
           style="fill:#2d4e72;fill-opacity:1;stroke-width:0.26458332"
           d="M 1.9941837,1.4299415 Q 1.932172,1.3679298 1.9011662,1.2955828 1.8701603,1.2129005 1.8494897,1.1302182 1.8288191,1.0372006 1.8184839,0.94418306 q -0.010335,-0.0826823 0,-0.16536458 0,-0.15502929 0.062012,-0.23771158 0.1136881,-0.0206706 0.2480468,-0.0413411 0.1343588,-0.0310059 0.2583822,-0.0516764 0.144694,-0.0206706 0.2997233,-0.0413411 0.082682,-0.0826823 0.217041,-0.17569987 0.144694,-0.10335286 0.3203939,-0.18603515 0.1343587,-0.06201171 0.1860351,0 0.051677,0.06201172 0.072347,0.25838216 0.2583822,-0.0206706 0.5374349,-0.0413412 0.2790527,-0.0206706 0.578776,-0.0206706 0.4030762,-0.0103353 0.7544759,-0.0206706 0.2997233,-0.0103353 0.5994466,0 0.3100586,0 0.4754232,0.0103353 0.082682,0.0103353 0.1240234,0.12402344 0.051676,0.10335286 0.031006,0.27905272 Q 6.5727155,0.79948905 6.4796979,0.99585949 6.3866803,1.1922299 6.2006452,1.3782651 5.9525983,1.3265886 5.6735456,1.2955828 5.4048282,1.2645769 5.1774519,1.2439064 4.9087344,1.2232358 4.6606876,1.2335711 q -0.2997233,0 -0.5994466,0.020671 -0.2997233,0.010335 -0.5684408,0.031006 -0.010335,0.4650879 -0.020671,1.085205 0,0.6097819 -0.010335,1.3539225 0.144694,-0.020671 0.2790527,-0.020671 0.1343587,-0.010335 0.2790527,-0.020671 0.3720703,-0.020671 0.72347,-0.041341 0.3513998,-0.020671 0.6097819,0.020671 0.2687175,0.031006 0.4030762,0.1550293 0.1343587,0.1240234 0.062012,0.3927409 L 5.6735456,4.7062272 Q 5.652875,4.6545508 5.5598574,4.6235449 5.4771752,4.5822038 5.363487,4.5615332 5.2394636,4.5305274 5.0844343,4.5098568 q -0.361735,-0.041341 -0.795817,-0.010335 -0.4340821,0.031006 -0.8371582,0.093018 0,0.5167643 0.010335,0.9818522 0.020671,0.4547525 0.041341,0.8268228 0.031006,0.3720703 0.051676,0.6407878 0.020671,0.2687174 0.031006,0.4030761 0.010335,0.093018 -0.020671,0.1446941 -0.051676,0.062012 -0.1240234,0.144694 -0.072347,0.082682 -0.1860352,0.1653645 -0.1136881,0.082682 -0.2790527,0.1343588 -0.1550293,0.062012 -0.361735,0.072347 -0.093018,0 -0.093018,-0.093018 V 4.8095801 Q 2.3455835,4.7992448 2.2008894,4.5408626 2.0561954,4.2824805 2.0665307,3.9620866 q 0.072347,-0.020671 0.144694,-0.031006 0.082682,-0.010335 0.1550293,-0.031006 0.082682,-0.020671 0.1550293,-0.031006 0,-0.7441406 0.010335,-1.3849283 0.010335,-0.651123 0.031006,-1.1162109 -0.093018,0.010335 -0.1963705,0.020671 -0.082682,0.010335 -0.1860351,0.020671 -0.1033529,0.010335 -0.1860352,0.020671 z" />
      </g>
      <g
         id="text4627-3-7-9-8-6-9-6-2-9"
         style="font-style:normal;font-variant:normal;font-weight:normal;font-stretch:normal;font-size:10.58333302px;line-height:1.25;font-family:Rancho;-inkscape-font-specification:Rancho;letter-spacing:0px;word-spacing:0px;display:inline;fill:#2d4e72;fill-opacity:1;stroke:none;stroke-width:0.26458332"
         aria-label="av">
        <path
           id="path2599"
           style="fill:#2d4e72;fill-opacity:1;stroke-width:0.26458332"
           d="m 9.3704752,6.6050716 q 0.020671,0.072347 0.062012,0.1343587 0.031006,0.051676 0.082682,0.1033528 0.062012,0.041341 0.144694,0.051677 -0.072347,0.144694 -0.144694,0.1963704 -0.041341,0.031006 -0.072347,0.041341 -0.093018,0.031006 -0.2790527,0.031006 -0.1860352,0 -0.361735,-0.1136881 Q 8.7400227,6.9978124 8.6883463,6.8944596 8.6366699,6.8117773 8.5953287,6.6670833 8.5643229,6.512054 8.5436523,6.2743424 8.3989583,6.584401 8.2129231,6.7704361 8.0372233,6.946136 7.8615234,7.0288183 7.665153,7.1425064 7.4584473,7.163177 7.2000651,7.1838476 6.9623535,7.0804947 6.7349772,6.9668066 6.5696126,6.7497656 6.4145834,6.5223893 6.3319011,6.2019954 6.2492188,5.8816015 6.2802246,5.4785254 6.3112305,5.0547786 6.4455892,4.7240495 6.5799479,4.3933203 6.7659831,4.1349382 6.9520182,3.876556 7.158724,3.7008562 7.3654297,3.514821 7.5514648,3.4011329 7.7478353,3.2771094 7.882194,3.225433 8.026888,3.1634213 8.0682291,3.153086 q 0.1136882,-0.031006 0.1963705,-0.020671 0.082682,0.010335 0.144694,0.093018 0.020671,0.031006 0.051676,0.072347 0.020671,0.041341 0.051676,0.1136881 0.031006,0.062012 0.051677,0.144694 Q 8.316276,3.6698503 8.099235,3.8145443 7.882194,3.948903 7.6961588,4.1452735 7.520459,4.3416439 7.3861003,4.6206966 7.2517415,4.8997493 7.1793945,5.3028255 7.0760417,5.8092545 7.231071,6.1193131 7.3964355,6.4293717 7.6754883,6.3776953 7.8408528,6.3260188 7.9958821,6.1813248 8.1302409,6.0573014 8.2749349,5.8092545 8.4299642,5.5612077 8.5643229,5.1271256 q 0.051676,-0.6201171 0.082682,-0.9715169 0.041341,-0.361735 0.072347,-0.5477701 0.041341,-0.217041 0.062012,-0.289388 0.031006,-0.051676 0.1240234,-0.093018 0.093018,-0.051676 0.2067057,-0.082682 0.1136882,-0.031006 0.2067058,-0.031006 0.093018,-0.010335 0.1240234,0 0.020671,0.010335 0.020671,0.2583822 0,0.2377116 -0.020671,0.6097819 -0.010335,0.361735 -0.031006,0.795817 -0.02067,0.4237467 -0.041341,0.8061523 -0.010335,0.3824056 -0.020671,0.6717936 0,0.2790528 0.020671,0.3513998 z" />
        <path
           id="path2601"
           style="fill:#2d4e72;fill-opacity:1;stroke-width:0.26458332"
           d="m 11.602897,6.5947363 q 0.09302,0 0.248047,-0.3307292 0.155029,-0.3307291 0.289388,-0.795817 0.144694,-0.4650879 0.227376,-0.9611816 0.09302,-0.4960938 0.05168,-0.8371582 -0.02067,-0.1136882 -0.06201,-0.1860352 -0.03101,-0.072347 -0.08268,-0.1550292 0.06201,-0.082682 0.155029,-0.1240235 0.09302,-0.051676 0.1757,-0.072347 0.103353,-0.031006 0.206706,-0.041341 0.248046,-0.010335 0.361735,0.082682 0.06201,0.062012 0.06201,0.289388 0,0.2273763 -0.05168,0.5374349 -0.04134,0.2997232 -0.124024,0.6407877 -0.07235,0.3307291 -0.165364,0.6097819 -0.09302,0.2687174 -0.227376,0.5891113 -0.134359,0.3100586 -0.279053,0.5994466 -0.144694,0.2790527 -0.289388,0.4857584 -0.144694,0.1963705 -0.248047,0.2377116 -0.217041,0.082682 -0.434082,0.082682 -0.206706,0 -0.258382,-0.051676 -0.02067,-0.020671 -0.09302,-0.144694 Q 10.993115,6.9254654 10.900098,6.729095 10.817415,6.5327246 10.714062,6.2743424 10.621045,6.005625 10.548698,5.7059017 10.476351,5.4061784 10.445345,5.0547786 10.414339,4.7033789 10.372998,4.3726498 10.341992,4.0315853 10.27998,3.7421973 10.217969,3.4528093 10.093945,3.2667741 l 0.485759,-0.1963704 q 0.06201,-0.031006 0.144694,-0.051676 0.08268,-0.031006 0.165364,-0.020671 0.08268,0.010335 0.144694,0.082682 0.07235,0.062012 0.09302,0.2273763 0.02067,0.1860351 0.03101,0.4444173 0.02067,0.2583821 0.03101,0.5374349 0.02067,0.2790527 0.04134,0.5581054 0.02067,0.2687175 0.04134,0.4857585 0.02067,0.2273763 0.05168,0.4547526 0.04134,0.2273763 0.08268,0.4030761 0.05168,0.1756999 0.09302,0.289388 0.05168,0.1136882 0.103353,0.1136882 z" />
      </g>
      <g
         id="text4632-4-3-6-0-6-6-8-3-8"
         style="font-style:normal;font-variant:normal;font-weight:normal;font-stretch:normal;font-size:10.58333302px;line-height:1.25;font-family:Rancho;-inkscape-font-specification:Rancho;letter-spacing:0px;word-spacing:0px;fill:#d4861b;fill-opacity:1;stroke:none;stroke-width:0.26458332"
         aria-label="Lists"
         transform="translate(-16.507615,-31.426614)">
        <path
           id="path4799-3-9-2-5-6-3-4-6-6"
           style="fill:#d4861b;fill-opacity:1;stroke-width:0.26458332"
           d="m 30.246953,39.099166 q 0.04134,-0.134359 0.07235,-0.454753 0.04134,-0.310059 0.06201,-0.630452 0.03101,-0.372071 0.05168,-0.806153 0.03101,-0.320394 0.05168,-0.806152 0.02067,-0.485759 0.03101,-1.033529 0.01034,-0.54777 0.01034,-1.105875 0,-0.568441 -0.01034,-1.0542 -0.01034,-0.485758 -0.04134,-0.837158 -0.02067,-0.351399 -0.06201,-0.475423 0.196371,-0.113688 0.3514,-0.165364 0.155029,-0.05168 0.268717,-0.07235 0.124024,-0.03101 0.227377,-0.02067 0.08268,0.01034 0.165364,0.03101 0.07235,0.02067 0.134359,0.06201 0.06201,0.03101 0.09302,0.09302 -0.02067,0.651123 -0.05168,1.312581 -0.02067,0.651124 -0.05168,1.198894 -0.04134,0.640787 -0.08268,1.229899 -0.031,0.620117 -0.06201,1.074869 -0.02067,0.444418 -0.04134,0.785482 -0.02067,0.330729 -0.03101,0.599447 -0.01034,0.258382 -0.01034,0.516764 0.248047,-0.05168 0.589112,-0.113688 0.341064,-0.07235 0.775146,-0.144694 0.413412,-0.06201 0.692464,-0.03101 0.279053,0.02067 0.444418,0.124024 0.165364,0.09302 0.227376,0.237711 0.06201,0.155029 0.05168,0.341065 -0.02067,0.206705 -0.03101,0.320393 -0.01034,0.113689 -0.01034,0.1757 -0.113688,-0.07235 -0.310058,-0.103353 -0.196371,-0.03101 -0.392741,-0.05168 -0.227376,-0.02067 -0.475423,-0.01033 -0.268718,0.01033 -0.589112,0.04134 -0.268717,0.02067 -0.630452,0.06201 -0.361735,0.04134 -0.754476,0.124023 -0.279053,-0.19637 -0.465088,-0.310059 -0.113688,-0.06201 -0.19637,-0.103352 z"
           inkscape:connector-curvature="0" />
        <path
           sodipodi:nodetypes="ccccscccccccccscccccccc"
           inkscape:connector-curvature="0"
           id="path4801-5-1-6-8-5-8-0-9-5"
           style="fill:#d4861b;fill-opacity:1;stroke-width:0.26458332"
           d="m 34.236373,34.92371 c 0,-0.04134 0.05512,-0.08613 0.165365,-0.134359 0.110243,-0.04823 0.230821,-0.08613 0.361735,-0.113688 0.137803,-0.03445 0.261827,-0.05168 0.37207,-0.05168 0.117133,-0.0069 0.1757,0.01722 0.1757,0.07235 0,0.103353 -0.0069,0.251492 -0.02067,0.444417 -0.01378,0.186035 -0.03101,0.385851 -0.05168,0.599447 -0.02067,0.206705 -0.04134,0.416856 -0.06201,0.630452 -0.02067,0.206706 -0.03445,0.382406 -0.04134,0.5271 -0.01378,0.151584 -0.02756,0.316948 -0.04134,0.496093 -0.01378,0.151585 -0.02412,0.320394 -0.03101,0.506429 -0.0069,0.186035 -0.0069,0.375516 0,0.568441 0,0.03445 -0.03445,0.0689 -0.103353,0.103353 -0.0689,0.03445 -0.144694,0.05857 -0.227376,0.07235 -0.08268,0.02067 -0.16192,0.03101 -0.237712,0.03101 -0.07579,0 -0.117133,-0.01378 -0.124023,-0.04134 -0.01378,-0.02756 -0.02756,-0.07579 -0.04134,-0.144694 -0.01378,-0.0689 -0.02756,-0.165365 -0.04134,-0.289388 -0.01378,-0.130914 -0.02412,-0.296279 -0.03101,-0.496094 -0.0069,-0.206706 -0.0035,-0.454753 0.01033,-0.744141 0.02756,-0.571885 0.03101,-1.012857 0.01034,-1.322916 -0.02067,-0.316949 -0.03445,-0.55466 -0.04134,-0.713135 z" />
        <path
           id="path4803-5-4-73-5-9-5-6-4-6"
           style="fill:#d4861b;fill-opacity:1;stroke-width:0.26458332"
           d="m 37.667688,36.618697 q 0.227376,0.08268 0.434082,0.155029 0.206706,0.07235 0.361735,0.1757 0.155029,0.103353 0.248047,0.248047 0.09302,0.134359 0.09302,0.341064 0,0.248047 -0.113689,0.465088 -0.103352,0.217041 -0.310058,0.382406 -0.206706,0.165364 -0.506429,0.258382 -0.289388,0.103353 -0.651123,0.103353 -0.403076,0 -0.651123,-0.08268 -0.248047,-0.07235 -0.382406,-0.1757 -0.134358,-0.103353 -0.1757,-0.206706 -0.04134,-0.103353 -0.04134,-0.165365 0,-0.124023 0.05168,-0.268717 0.05168,-0.155029 0.19637,-0.330729 0.06201,-0.07235 0.134359,-0.134359 0.144694,-0.124023 0.289388,-0.155029 -0.02067,0.237711 0.05168,0.392741 0.08268,0.144694 0.206706,0.227376 0.134359,0.08268 0.289388,0.113688 0.165365,0.03101 0.310059,0.03101 0.144694,0 0.289388,-0.04134 0.155029,-0.04134 0.279052,-0.103353 0.124024,-0.07235 0.196371,-0.155029 0.08268,-0.09302 0.08268,-0.196371 0,-0.113688 -0.09302,-0.186035 -0.09302,-0.07235 -0.237711,-0.113688 -0.134359,-0.05168 -0.299723,-0.07235 -0.15503,-0.03101 -0.299724,-0.06201 -0.144694,-0.03101 -0.392741,-0.08268 -0.237711,-0.06201 -0.475423,-0.186035 -0.227376,-0.124024 -0.403076,-0.330729 -0.165364,-0.206706 -0.165364,-0.547771 0,-0.39274 0.19637,-0.682128 0.206706,-0.299724 0.496094,-0.496094 0.299723,-0.206706 0.630452,-0.310059 0.330729,-0.103353 0.589111,-0.103353 0.134359,0 0.289388,0.04134 0.15503,0.03101 0.289388,0.124023 0.134359,0.08268 0.217041,0.227376 0.09302,0.144694 0.09302,0.372071 0,0.227376 -0.04134,0.37207 -0.03101,0.134359 -0.103353,0.217041 -0.06201,0.07235 -0.155029,0.09302 -0.09302,0.02067 -0.217041,0.02067 -0.08268,0 -0.15503,-0.02067 -0.06201,-0.02067 -0.134358,-0.04134 -0.07235,-0.02067 -0.134359,-0.07235 0.103353,-0.124023 0.155029,-0.237711 0.06201,-0.113688 0.06201,-0.279053 0,-0.144694 -0.08268,-0.258382 -0.07235,-0.113688 -0.248047,-0.113688 -0.186035,0 -0.361735,0.07235 -0.165365,0.07235 -0.299723,0.19637 -0.124024,0.124024 -0.206706,0.289388 -0.07235,0.155029 -0.07235,0.341065 0,0.279052 0.206706,0.527099 0.217041,0.248047 0.671793,0.423747 z"
           inkscape:connector-curvature="0" />
        <path
           id="path4805-5-0-1-7-2-8-3-5-1"
           style="fill:#d4861b;fill-opacity:1;stroke-width:0.26458332"
           d="m 43.290084,33.983199 q -0.113688,-0.02067 -0.310059,-0.04134 -0.186035,-0.02067 -0.382405,-0.03101 -0.227377,-0.01033 -0.485759,-0.01033 -0.258382,-0.02067 -0.651123,0 -0.382405,0.01033 -0.806152,0.01033 -0.01034,0.268717 -0.04134,0.54777 -0.02067,0.279053 -0.04134,0.54777 -0.05168,0.496094 -0.09302,1.012858 -0.03101,0.516765 -0.03101,0.981852 0,0.465088 0.05168,0.847494 0.06201,0.37207 0.217042,0.589111 -0.124024,0.09302 -0.268718,0.144694 -0.144694,0.04134 -0.258382,0.06201 -0.134359,0.03101 -0.268718,0.03101 -0.124023,0 -0.206705,-0.08268 -0.08268,-0.08268 -0.09302,-0.289388 -0.02067,-0.3514 -0.01033,-0.7028 0.02067,-0.361735 0.04134,-0.754476 0.03101,-0.392741 0.06201,-0.837158 0.03101,-0.454753 0.06201,-0.992187 0.03101,-0.558106 0.03101,-1.085205 -0.392741,0.01034 -0.661458,0.01034 -0.268717,0 -0.299723,-0.01034 -0.03101,-0.02067 -0.07235,-0.09302 -0.04134,-0.06201 -0.103353,-0.186035 -0.07235,-0.124024 -0.1757,-0.3514 0.19637,0 0.434082,0 0.227376,0 0.423747,-0.01034 0.227376,-0.01034 0.454752,-0.02067 -0.01033,-0.165364 -0.01033,-0.3514 -0.01033,-0.144694 -0.01033,-0.320393 0,-0.186036 -0.01034,-0.341065 0,-0.06201 0.144694,-0.144694 0.15503,-0.09302 0.33073,-0.165364 0.175699,-0.07235 0.320394,-0.09302 0.155029,-0.02067 0.155029,0.07235 0,0.09302 -0.01034,0.454753 0,0.351399 -0.02067,0.857828 0.103353,0 0.155029,-0.01033 0.54777,-0.02067 0.8785,-0.04134 0.341064,-0.03101 0.558105,-0.01033 0.217041,0.02067 0.382406,0.103352 0.165364,0.08268 0.37207,0.268718 0.07235,0.06201 0.124023,0.134359 0.05168,0.06201 0.08268,0.144694 0.04134,0.07235 0.04134,0.155029 z"
           inkscape:connector-curvature="0" />
      </g>
      <path
         id="circle4634-7-9-3-2-4-7-5-0-4"
         d="m 18.999555,2.0543513 a 0.68636793,0.68636793 0 0 1 -0.686368,0.686368 0.68636793,0.68636793 0 0 1 -0.686368,-0.686368 0.68636793,0.68636793 0 0 1 0.686368,-0.6863679 0.68636793,0.68636793 0 0 1 0.686368,0.6863679 z"
         style="display:inline;fill:#2d4e72;fill-opacity:1;stroke-width:0.25587115" />
      <path
         id="circle4638-1-0-8-4-53-7-9-0-6"
         d="M 1.3943146,0.90657777 A 0.68636793,0.68636793 0 0 1 0.70794666,1.5929457 0.68636793,0.68636793 0 0 1 0.02157873,0.90657777 0.68636793,0.68636793 0 0 1 0.70794666,0.22020984 0.68636793,0.68636793 0 0 1 1.3943146,0.90657777 Z"
         style="display:inline;fill:#d4861b;fill-opacity:1;stroke-width:0.25587115" />
      <path
         id="circle4649-5-0-3-1-7-7-9-9-4"
         d="M 1.3943146,4.2140346 A 0.68636793,0.68636793 0 0 1 0.70794666,4.9004025 0.68636793,0.68636793 0 0 1 0.02157873,4.2140346 0.68636793,0.68636793 0 0 1 0.70794666,3.5276666 0.68636793,0.68636793 0 0 1 1.3943146,4.2140346 Z"
         style="display:inline;fill:#d4861b;fill-opacity:1;stroke-width:0.25587115" />
    </g>
  </g>
</svg>
